# xmcd
#
# Track frame offsets:
#   225
#   4727
#   27616
#   53711
#   73835
#   109362
#   128015
#   153074
#   182522
#   197554
#   216991
#   234372
#   253966
#   261790
#   285560
#
# Disc length: 4150 seconds
#
# Revision: 0
# Processed by: cddbd v1.5.2PL0 Copyright (c) Steve Scherf et al.
# Submitted via: GXTranscoder 2.0.1939
#
DISCID=d710330f
DTITLE=Michael W. Smith - A New Halleluja
DYEAR=2005
DGENRE=Blues
TTITLE0=Prepare Intro
TTITLE1=Prepare Ye The Way
TTITLE2=A New Halleluja
TTITLE3=When I Think Of You
TTITLE4=Mighty To Save
TTITLE5=Shout Unto God
TTITLE6=Amazing Grace
TTITLE7=Deep In Love With You
TTITLE8=Healing Rain
TTITLE9=Majesty
TTITLE10=I Surrender All
TTITLE11=Grace
TTITLE12=MWS Sharing
TTITLE13=Help Is On The Way
TTITLE14=The River Is Rising
EXTD=
EXTT0=
EXTT1=
EXTT2=
EXTT3=
EXTT4=
EXTT5=
EXTT6=
EXTT7=
EXTT8=
EXTT9=
EXTT10=
EXTT11=
EXTT12=
EXTT13=
EXTT14=
PLAYORDER=
